<svg xmlns="http://www.w3.org/2000/svg" xmlns:xlink="http://www.w3.org/1999/xlink" viewBox="0 0 42.65 44.55"><defs><style>.cls-1{fill:#ebebeb;}.cls-2{mask:url(#mask);}.cls-3{fill:#c2c0c0;}</style><mask id="mask" x="0" y="0" width="42.65" height="44.55" maskUnits="userSpaceOnUse"><circle class="cls-1" cx="21.9" cy="21.98" r="20.68"/></mask></defs><g id="Layer_2" data-name="Layer 2"><g id="Layer_1-2" data-name="Layer 1"><circle class="cls-1" cx="22.01" cy="21.92" r="20.57"/><circle class="cls-1" cx="21.9" cy="21.98" r="20.68"/><g class="cls-2"><path class="cls-3" d="M35.7,3.59c.13,1-.45,1.45-1.28,2.28a7,7,0,0,1-2.2,1.93A11.7,11.7,0,0,1,29.35,9c-1.07.15-2.11-.39-3.06-.51a8.09,8.09,0,0,1-2.93-.61,3.08,3.08,0,0,1-1.73-2.3,3.06,3.06,0,0,1,1.06-2.65,7.87,7.87,0,0,1,2.56-1.58,11.55,11.55,0,0,1,2.89-1A13.39,13.39,0,0,1,31.25,0a9.94,9.94,0,0,1,3.2.62C35.48,1.21,35.56,2.65,35.7,3.59Z"/><path class="cls-3" d="M42.59,14.43a4.44,4.44,0,0,1-.78,3.51,5.81,5.81,0,0,1-3.31,1.59A5.55,5.55,0,0,1,35,18.78a4.12,4.12,0,0,1-1.57-3.06,3.64,3.64,0,0,1,1-3.07,5,5,0,0,1,2.88-1.91,5.87,5.87,0,0,1,3.64.49A4.5,4.5,0,0,1,42.59,14.43Z"/><path class="cls-3" d="M15.58,8c.38.77-.8,1.5-1.68,2.6A9.9,9.9,0,0,1,12,12.93,18.44,18.44,0,0,1,9.3,14.59c-1,.5-1.77,1.55-2.72,1.83-1.14.34-2.36-.54-3.28-.52-1.4,0-2.82.47-3.2-.29s.35-2,1.23-3.11a13.29,13.29,0,0,1,2.48-1.94A18,18,0,0,1,6.4,8.72c1-.5,2.17-.33,3.12-.61,1.14-.34,2-1.8,2.94-1.82A3.71,3.71,0,0,1,15.58,8Z"/><path class="cls-3" d="M17.87,28.06c-.11,1-.07,2.11-1.11,2.75a8.67,8.67,0,0,1-3,1.46c-1,.16-2.15-.54-3.28-.66a12.08,12.08,0,0,1-3.08-.72,9.11,9.11,0,0,1-2.92-1.38,3.31,3.31,0,0,1-.73-3c.11-1,.06-2.48,1.1-3.12.81-.5,2.24,0,3.4-.22,1-.16,2.07-.76,3.2-.64a13,13,0,0,1,3.2.73c1.1.43,1.68,1.58,2.36,2.23A2.63,2.63,0,0,1,17.87,28.06Z"/><path class="cls-3" d="M23.68,16.92a5.6,5.6,0,0,1,1.86,1.95,3.07,3.07,0,0,1,0,2.83,3,3,0,0,1-2.73.75,5.48,5.48,0,0,1-2.52-1.1,5.35,5.35,0,0,1-1.57-2.2c-.4-.95-.74-2.08-.22-2.77s1.72-.78,2.74-.65A5.35,5.35,0,0,1,23.68,16.92Z"/><path class="cls-3" d="M22.4,38.07a5.76,5.76,0,0,1,2.15,2.33,3.29,3.29,0,0,1-.08,3.19,3.29,3.29,0,0,1-3,.93,5.72,5.72,0,0,1-2.84-1.39c-1-.73-2-1.34-2.32-2.27a3.51,3.51,0,0,1,.2-3.32,3.59,3.59,0,0,1,3.14-1.2C20.6,36.43,21.44,37.34,22.4,38.07Z"/><path class="cls-3" d="M27.39,28.87a3.62,3.62,0,0,1,1.82,1.86,3.48,3.48,0,0,1-.27,2.53,2.94,2.94,0,0,1-1.88,1.41c-.76.29-1.63.76-2.43.4a3.57,3.57,0,0,1-1.71-1.92,3.28,3.28,0,0,1,.33-2.42,2.92,2.92,0,0,1,1.68-1.61A3.3,3.3,0,0,1,27.39,28.87Z"/><path class="cls-3" d="M39.52,24.09a2.59,2.59,0,0,1,.31,2.81c-.37.81-1.35,1.29-2.21,2s-1.49,1.83-2.36,2A3.37,3.37,0,0,1,32.17,30c-.58-.71-.26-1.93.23-3a6.62,6.62,0,0,1,2-2.09,6.17,6.17,0,0,1,2.5-1.37C38.08,23.3,38.94,23.38,39.52,24.09Z"/></g></g></g></svg>